<svg id="visual" viewBox="0 0 300 300" width="300" height="300" xmlns="http://www.w3.org/2000/svg" xmlns:xlink="http://www.w3.org/1999/xlink" version="1.1"><g transform="translate(146.9438071612248 156.77628677158737)"><path d="M71.6 -94.7C93.8 -82.4 113.5 -62.8 124.9 -38.1C136.3 -13.4 139.5 16.5 130.6 42C121.8 67.6 100.8 88.8 77.1 93.1C53.3 97.4 26.6 84.7 7.8 73.9C-11 63.2 -22 54.3 -43.6 49.3C-65.2 44.4 -97.3 43.2 -114.7 28.1C-132.2 13.1 -135.1 -15.9 -119.1 -30.6C-103.1 -45.2 -68.3 -45.7 -45.3 -57.7C-22.3 -69.7 -11.2 -93.4 6.8 -102.7C24.7 -112 49.4 -107 71.6 -94.7" fill="#032548"></path></g></svg>